FILE "Euro Demo 09-01 (G) (Track 1) [SCED-03472].bin" BINARY
  TRACK 01 MODE2/2352
    INDEX 01 00:00:00
FILE "Euro Demo 09-01 (G) (Track 2) [SCED-03472].bin" BINARY
  TRACK 02 AUDIO
    INDEX 00 00:00:00
    INDEX 01 00:02:00
FILE "Euro Demo 09-01 (G) (Track 3) [SCED-03472].bin" BINARY
  TRACK 03 AUDIO
    INDEX 00 00:00:00
    INDEX 01 00:02:00
FILE "Euro Demo 09-01 (G) (Track 4) [SCED-03472].bin" BINARY
  TRACK 04 AUDIO
    INDEX 00 00:00:00
    INDEX 01 00:02:00
